<?xml version="1.0" encoding="UTF-8" standalone="no"?>
<!-- Creator: CorelDRAW 2019 (64-Bit) -->

<svg
   xml:space="preserve"
   width="42mm"
   height="62mm"
   version="1.1"
   style="clip-rule:evenodd;fill-rule:evenodd;image-rendering:optimizeQuality;shape-rendering:geometricPrecision;text-rendering:geometricPrecision"
   viewBox="0 0 3263.6765 4817.811"
   id="svg2"
   sodipodi:docname="logo_cs.svg"
   inkscape:version="1.3.2 (091e20e, 2023-11-25, custom)"
   xmlns:inkscape="http://www.inkscape.org/namespaces/inkscape"
   xmlns:sodipodi="http://sodipodi.sourceforge.net/DTD/sodipodi-0.dtd"
   xmlns="http://www.w3.org/2000/svg"
   xmlns:svg="http://www.w3.org/2000/svg"
   xmlns:xlink0="https://www.w3.org/1999/xlink"><sodipodi:namedview
   id="namedview2"
   pagecolor="#ffffff"
   bordercolor="#000000"
   borderopacity="0.25"
   inkscape:showpageshadow="2"
   inkscape:pageopacity="0.0"
   inkscape:pagecheckerboard="0"
   inkscape:deskcolor="#d1d1d1"
   inkscape:document-units="mm"
   inkscape:zoom="2.142476"
   inkscape:cx="122.98854"
   inkscape:cy="138.85803"
   inkscape:current-layer="Livello_x0020_1" />
 <defs
   id="defs1">
  <style
   type="text/css"
   id="style1">
   <![CDATA[
    .fil1 {fill:none}
    .fil0 {fill:#4D4D4D}
   ]]>
  </style>
     <clipPath
   id="id0">
      <path
   d="M 801.65,0 H 4996.6 V 5706.06 H 801.65 Z"
   id="path1" />
     </clipPath>
 </defs>
 <g
   id="Livello_x0020_1"
   inkscape:label="Livello 1"
   inkscape:groupmode="layer">
  <metadata
   id="CorelCorpID_0Corel-Layer" />
  <g
   id="_1494662126096"
   transform="translate(-902.66614,-279.64619)">
   <g
   id="g2">
    <g
   clip-path="url(#id0)"
   id="g1">
     <image
   x="801.65002"
   y="0"
   width="4194.9502"
   height="5706.0601"
   xlink0:href="logo_cs_Images\logo_cs_ImgID1.png"
   id="image1" />
    </g>
   </g>
   <path
   class="fil0"
   d="m 1319.43,590.14 657.1,-138.34 366.6,-138.33 78.11,65.09 V 2454.44 H 968.96 c 25.54,-76.55 53,-152.65 66.9,-231.94 21.15,-120.7 4.2,-246.31 27.66,-366.59 32.15,-164.75 113.37,-318.19 138.33,-484.17 l 117.59,-781.6 z m 1247.46,-90.19 315.75,263.11 c 124.5,11.52 248.62,40.83 373.5,34.58 l 415.01,-20.75 504.93,311.25 c -57.64,172.92 -131.85,341.18 -172.92,518.76 -37.7,162.99 -89.76,332.99 -62.25,498.01 l 58.26,349.52 H 2566.9 V 499.94 Z M 3998.3,2600.1 c -26.47,178.41 -54.74,356.59 -78.15,535.43 -14.44,110.32 -12.76,222.9 -34.58,332 -22.18,110.87 -72.97,214.57 -96.84,325.09 l -186.75,864.6 -394.26,-110.67 c -53.03,-154.47 -122.47,-297.45 -175.51,-451.93 -63.74,-301.32 -492.01,-175.73 -357.09,133.76 29.97,55.33 59.94,110.67 89.92,166 l 20.75,172.92 27.67,48.42 -110.67,124.5 -135.91,3.57 v -2143.7 h 1431.41 z m -1577.06,2147.53 -506.96,13.34 c -101.45,29.97 -202.89,59.94 -304.34,89.92 -170.61,66.86 -341.23,133.72 -511.84,200.58 C 1051.99,4313.68 992.58,3576.6 959.76,2838.1 l -10.58,-238.01 h 1472.05 v 2147.53 z"
   id="path2" />
   <rect
   class="fil1"
   x="0"
   y="156.47"
   width="5069.0098"
   height="5069.0098"
   id="rect2" />
  </g>
 </g>
</svg>
