<?xml version="1.0" encoding="UTF-8" standalone="no"?>
<svg
   viewBox="0 0 576 512"
   version="1.1"
   id="svg1"
   sodipodi:docname="map-location-dot.svg"
   xml:space="preserve"
   inkscape:version="1.3.2 (091e20e, 2023-11-25, custom)"
   xmlns:inkscape="http://www.inkscape.org/namespaces/inkscape"
   xmlns:sodipodi="http://sodipodi.sourceforge.net/DTD/sodipodi-0.dtd"
   xmlns="http://www.w3.org/2000/svg"
   xmlns:svg="http://www.w3.org/2000/svg"><defs
     id="defs1" /><sodipodi:namedview
     id="namedview1"
     pagecolor="#ffffff"
     bordercolor="#000000"
     borderopacity="0.25"
     inkscape:showpageshadow="2"
     inkscape:pageopacity="0.0"
     inkscape:pagecheckerboard="0"
     inkscape:deskcolor="#d1d1d1"
     inkscape:zoom="1.4242249"
     inkscape:cx="287.52482"
     inkscape:cy="255.92869"
     inkscape:current-layer="svg1" /><!--! Font Awesome Free 6.6.0 by @fontawesome - https://fontawesome.com License - https://fontawesome.com/license/free (Icons: CC BY 4.0, Fonts: SIL OFL 1.1, Code: MIT License) Copyright 2024 Fonticons, Inc.--><path
     d="M408 120c0 54.6-73.1 151.9-105.2 192-7.7 9.6-22 9.6-29.6 0C241.1 271.9 168 174.6 168 120 168 53.7 221.7 0 288 0s120 53.7 120 120m8 80.4c3.5-6.9 6.7-13.8 9.6-20.6.5-1.2 1-2.5 1.5-3.7l116-46.4c15.8-6.3 32.9 5.3 32.9 22.3v270.8c0 9.8-6 18.6-15.1 22.3L416 503zm-278.4-62.1c2.4 14.1 7.2 28.3 12.8 41.5 2.9 6.8 6.1 13.7 9.6 20.6v251.4L32.9 502.7C17.1 509 0 497.4 0 480.4V209.6c0-9.8 6-18.6 15.1-22.3l122.6-49zM327.8 332c13.9-17.4 35.7-45.7 56.2-77v249.3l-192-54.9V255c20.5 31.3 42.3 59.6 56.2 77 20.5 25.6 59.1 25.6 79.6 0M288 152a40 40 0 1 0 0-80 40 40 0 1 0 0 80"
     id="path1" /><path
     d="m 345.63504,176.5316 4.55,-7.87 v 13.69 h -20 v -18 h 2 v 12.54 l 5.5,-9.54 6.5,3.78 4.24,-7.33 1.73,1 -5.23,9.05 -6.51,-3.75 -5.92,10.25 h 2.26 l 4.39,-7.56 z"
     id="path1-3" /></svg>
