<?xml version="1.0" encoding="UTF-8" standalone="no"?>
<svg
   viewBox="0 0 640 512"
   version="1.1"
   id="svg1"
   sodipodi:docname="arrows-down-to-people.svg"
   inkscape:version="1.3.2 (091e20e, 2023-11-25, custom)"
   xmlns:inkscape="http://www.inkscape.org/namespaces/inkscape"
   xmlns:sodipodi="http://sodipodi.sourceforge.net/DTD/sodipodi-0.dtd"
   xmlns="http://www.w3.org/2000/svg"
   xmlns:svg="http://www.w3.org/2000/svg">
  <defs
     id="defs1" />
  <sodipodi:namedview
     id="namedview1"
     pagecolor="#ffffff"
     bordercolor="#000000"
     borderopacity="0.25"
     inkscape:showpageshadow="2"
     inkscape:pageopacity="0.0"
     inkscape:pagecheckerboard="0"
     inkscape:deskcolor="#d1d1d1"
     inkscape:zoom="1.4242249"
     inkscape:cx="319.82309"
     inkscape:cy="205.37487"
     inkscape:current-layer="svg1" />
  <!--! Font Awesome Free 6.6.0 by @fontawesome - https://fontawesome.com License - https://fontawesome.com/license/free (Icons: CC BY 4.0, Fonts: SIL OFL 1.1, Code: MIT License) Copyright 2024 Fonticons, Inc.-->
  <path
     d="M 144,0 C 130.7,0 120,10.7 120,24 V 142.1 L 97,119 c -9.4,-9.4 -24.6,-9.4 -33.9,0 -9.3,9.4 -9.4,24.6 0,33.9 l 64,64 c 9.4,9.4 24.6,9.4 33.9,0 l 64,-64 c 9.4,-9.4 9.4,-24.6 0,-33.9 -9.4,-9.3 -24.6,-9.4 -33.9,0 l -23,23 L 168,24 C 168,10.7 157.3,0 144,0 m 216,200 c 0,-22.0914 -17.90861,-39.99998 -40,-39.99998 -22.09139,0 -40,17.90858 -40,39.99998 0,22.0914 17.90861,39.99998 40,39.99998 22.09139,0 40,-17.90858 40,-39.99998 m -176,96 c 0,-22.0914 -17.90861,-39.99998 -40,-39.99998 -22.09139,0 -40,17.90858 -40,39.99998 0,22.0914 17.90861,39.99998 40,39.99998 22.09139,0 40,-17.90858 40,-39.99998 m 312,40 c 22.0914,0 39.99998,-17.90861 39.99998,-40 0,-22.09139 -17.90858,-40 -39.99998,-40 -22.0914,0 -39.99998,17.90861 -39.99998,40 0,22.09139 17.90858,40 39.99998,40 m -296,105.5 26.9,49.9 c 6.3,11.7 20.8,16 32.5,9.8 11.7,-6.2 16,-20.8 9.8,-32.5 l -36.3,-67.5 c 1.7,-1.7 3.2,-3.6 4.3,-5.8 L 264,345.5 V 400 c 0,17.7 14.3,32 32,32 h 48 c 17.7,0 32,-14.3 32,-32 v -54.5 l 26.9,49.9 c 1.2,2.2 2.6,4.1 4.3,5.8 l -36.3,67.5 c -6.3,11.7 -1.9,26.2 9.8,32.5 11.7,6.3 26.2,1.9 32.5,-9.8 L 440,441.5 V 480 c 0,17.7 14.3,32 32,32 h 48 c 17.7,0 32,-14.3 32,-32 v -38.5 l 26.9,49.9 c 6.3,11.7 20.8,16 32.5,9.8 11.7,-6.2 16,-20.8 9.8,-32.5 L 583.3,398.4 C 568,369.9 538.2,352.1 505.8,352.1 h -19.5 c -16.3,0 -31.9,4.5 -45.4,12.6 L 407.3,302.4 C 392,273.9 362.2,256.1 329.8,256.1 h -19.5 c -32.4,0 -62.1,17.8 -77.5,46.3 l -33.6,62.3 c -13.5,-8.1 -29.1,-12.6 -45.4,-12.6 h -19.5 c -32.4,0 -62.1,17.8 -77.5,46.3 l -37.9,70.2 c -6.3,11.7 -1.9,26.2 9.8,32.5 11.7,6.3 26.2,1.9 32.5,-9.8 L 88,441.5 V 480 c 0,17.7 14.3,32 32,32 h 48 c 17.7,0 32,-14.3 32,-32 z"
     id="path1"
     sodipodi:nodetypes="csccscscsscccccsssccsssccssscccsccccssssccccsccssssccsccssccssccssccsccssssc" />
  <path
     d="m 422.03469,71.197908 64,-64.0000002 c 9.4,-9.4 24.6,-9.4 33.9,0 l 64,64.0000002 c 9.4,9.4 9.4,24.6 0,33.900002 -9.4,9.3 -24.6,9.4 -33.9,0 l -23,-23.000002 V 200.19791 c 0,13.3 -10.7,24 -24,24 -13.3,0 -24,-10.7 -24,-24 V 82.097908 l -23,23.000002 c -9.4,9.4 -24.6,9.4 -33.9,0 -9.3,-9.400002 -9.4,-24.600002 0,-33.900002 z"
     id="path1-8"
     sodipodi:nodetypes="cscssccssscsscc" />
</svg>
