<?xml version="1.0" encoding="UTF-8" standalone="no"?>
<svg
   viewBox="0 0 640 512"
   version="1.1"
   id="svg1"
   sodipodi:docname="people.svg"
   inkscape:version="1.3.2 (091e20e, 2023-11-25, custom)"
   xmlns:inkscape="http://www.inkscape.org/namespaces/inkscape"
   xmlns:sodipodi="http://sodipodi.sourceforge.net/DTD/sodipodi-0.dtd"
   xmlns="http://www.w3.org/2000/svg"
   xmlns:svg="http://www.w3.org/2000/svg">
  <defs
     id="defs1" />
  <sodipodi:namedview
     id="namedview1"
     pagecolor="#ffffff"
     bordercolor="#000000"
     borderopacity="0.25"
     inkscape:showpageshadow="2"
     inkscape:pageopacity="0.0"
     inkscape:pagecheckerboard="0"
     inkscape:deskcolor="#d1d1d1"
     inkscape:zoom="1.2477722"
     inkscape:cx="320.17062"
     inkscape:cy="256.05635"
     inkscape:current-layer="svg1" />
  <!--! Font Awesome Free 6.6.0 by @fontawesome - https://fontawesome.com License - https://fontawesome.com/license/free (Icons: CC BY 4.0, Fonts: SIL OFL 1.1, Code: MIT License) Copyright 2024 Fonticons, Inc.-->
  <path
     d="M 72.000003,120 A 56,56 0 1 1 184,120 56,56 0 1 1 72.000003,120 m -8,157.7 c -10,11.2 -16,26.1 -16,42.3 0,16.2 6,31.1 16,42.3 V 277.6 Z M 208.4,228.4 C 178.7,254.7 160,293.2 160,336 c 0,34.3 12,65.8 32,90.5 V 448 c 0,17.7 -14.3,32 -32,32 H 95.999998 C 78.300003,480 64.000003,465.7 64.000003,448 V 421.2 C 26.200003,403.2 2.3e-6,364.7 2.3e-6,320 2.3e-6,258.1 50.100003,208 112,208 h 32 c 24,0 46.2,7.5 64.4,20.3 z M 448,448 V 426.5 C 468,401.8 480,370.3 480,336 480,293.2 461.3,254.7 431.6,228.3 449.8,215.5 472,208 496,208 h 32 c 61.9,0 112,50.1 112,112 0,44.7 -26.2,83.2 -64,101.2 V 448 c 0,17.7 -14.3,32 -32,32 h -64 c -17.7,0 -32,-14.3 -32,-32 m 8,-328 a 56,56 0 1 1 112,0 56,56 0 1 1 -112,0 m 120,157.7 v 84.7 c 10,-11.3 16,-26.1 16,-42.3 0,-16.2 -6,-31.1 -16,-42.3 z M 320,63.999998 A 64.000001,64.000001 0 1 1 320,192 64.000001,64.000001 0 1 1 320,63.999998 M 240,336 c 0,16.2 6,31 16,42.3 v -84.7 c -10,11.3 -16,26.1 -16,42.3 z m 144,-42.3 v 84.7 c 10,-11.3 16,-26.1 16,-42.3 0,-16.2 -6,-31.1 -16,-42.3 z m 64,42.3 c 0,44.7 -26.2,83.2 -64,101.2 V 480 c 0,17.7 -14.3,32 -32,32 h -64 c -17.7,0 -32,-14.3 -32,-32 v -42.8 c -37.8,-18 -64,-56.5 -64,-101.2 0,-61.9 50.1,-112 112,-112 h 32 c 61.9,0 112,50.1 112,112"
     id="path1" />
</svg>
